<svg xmlns="http://www.w3.org/2000/svg" width="351" height="86" viewBox="0 0 351 86" fill="none">
  <path d="M44.086 22.1502L42.1826 32.6255C37.5963 31.4627 24.6351 27.4578 24.6351 27.4578C15.3312 22.2201 10.1179 14.4832 8.97819 2.9358H29.1292L44.086 22.1502Z" fill="#292929"/>
  <path d="M42.1154 32.7528L44.0375 22.2775C39.0276 23.4404 24.6075 27.448 24.6075 27.448C13.3933 32.6857 5.3559 40.4198 0 51.9672H20.1462L42.1154 32.7528Z" fill="#171717"/>
  <path d="M75.273 22.1501L73.3696 32.6255C68.7833 31.4626 55.8221 27.4577 55.8221 27.4577C46.5182 22.22 41.3049 14.4832 40.1652 2.93572H60.3162L75.273 22.1501Z" fill="#171717"/>
  <path d="M73.3048 32.7528L75.2269 22.2774C70.217 23.4403 55.7969 27.4479 55.7969 27.4479C44.5827 32.6856 36.5453 40.4197 31.1894 51.9672H51.3356L73.3048 32.7528Z" fill="#171717"/>
  <path d="M106.443 22.15L104.54 32.6252C99.954 31.4623 86.9926 27.4575 86.9926 27.4575C77.6884 22.2199 72.4746 14.4831 71.3343 2.93572H91.4853L106.443 22.15Z" fill="#171717"/>
  <path d="M104.477 32.7528L106.399 22.2774C101.389 23.4403 86.9687 27.4479 86.9687 27.4479C75.7545 32.6856 67.7171 40.4197 62.3612 51.9672H82.5074L104.477 32.7528Z" fill="#171717"/>
  <path d="M124.221 51.9809L114.287 2.0718L114.383 1.87938H131.647L136.011 32.8832L151.514 1.87938H169.091V2.0718L141.388 51.9809H124.221Z" fill="#171717"/>
  <path d="M162.62 24.1388C164.911 10.8858 174.242 0.687484 187.937 0.687484C193.989 0.687484 198.666 2.97248 201.921 8.21595L202.717 8.02353C202.813 5.83474 203.127 4.27132 203.513 1.89011H219.884L210.939 51.9917H194.664C195.05 49.8029 195.459 48.2395 195.966 46.0507L195.074 45.7621C190.806 51.0055 185.646 53.0981 180.776 53.0981C166.285 53.0981 159.92 39.2438 162.62 24.1869V24.1388ZM198.956 27.8188C200.258 20.7955 196.761 15.5279 190.131 15.5279C184.176 15.5279 180.004 19.8815 178.919 25.7262C177.738 32.6534 181.21 38.2095 187.744 38.2095C193.699 38.2095 197.967 33.856 198.956 27.8188Z" fill="#171717"/>
  <path d="M224.158 1.8648H240.433C240.047 4.14979 239.637 5.73727 239.035 7.99821L239.83 8.19063C243.399 3.42822 248.076 0.662166 253.935 0.662166C259.794 0.662166 263.965 3.42822 265.653 8.28684H266.738C270.307 3.04337 275.78 0.662166 281.325 0.662166C293.14 0.662166 297.407 10.3554 295.43 22.0449L290.078 51.9423H273.393L278.456 23.5121C279.252 18.87 277.66 15.5988 273.296 15.5988C269.222 15.5988 266.738 18.6776 266.063 22.8146L260.903 51.9183H244.436L249.402 23.4881C250.295 18.8459 248.607 15.5748 244.436 15.5748C240.264 15.5748 237.781 18.7497 236.985 22.9108L231.922 51.9183H215.237L224.158 1.8648Z" fill="#171717"/>
  <path d="M296.804 24.5577C299.384 9.81346 310.596 0 325.689 0C341.964 0 352.38 13.1808 349.511 29.1999C347.027 43.9441 335.623 53.7576 320.626 53.7576C304.351 53.7576 293.935 40.5767 296.804 24.5577ZM333.453 27.8289C334.755 20.9979 331.066 15.0569 324.508 15.0569C317.949 15.0569 313.875 19.5067 312.79 25.9528C311.488 32.7837 315.177 38.7247 321.614 38.7247C328.052 38.7247 332.344 34.1787 333.429 27.8289H333.453Z" fill="#171717"/>
  <path d="M242.464 69.2146V65.8563H258.287V69.2146H252.389V85.122H248.363V69.2146H242.464Z" fill="#292929"/>
  <path d="M263.184 85.122H258.819L265.47 65.8563H270.719L277.361 85.122H272.996L268.17 70.2588H268.019L263.184 85.122ZM262.911 77.5493H273.221V80.7289H262.911V77.5493Z" fill="#292929"/>
  <path d="M281.004 85.122V65.8563H285.077V81.7637H293.337V85.122H281.004Z" fill="#292929"/>
  <path d="M297.359 85.122V65.8563H310.34V69.2146H301.432V73.8053H309.673V77.1636H301.432V81.7637H310.378V85.122H297.359Z" fill="#292929"/>
  <path d="M331.018 65.8563V85.122H327.499L319.118 72.9963H318.977V85.122H314.903V65.8563H318.478L326.794 77.9726H326.963V65.8563H331.018Z" fill="#292929"/>
  <path d="M334.974 69.2146V65.8563H350.797V69.2146H344.898V85.122H340.872V69.2146H334.974Z" fill="#292929"/>
</svg>
