<svg xmlns="http://www.w3.org/2000/svg" viewBox="0 0 64 64" width="64" height="64">
  <defs>
    <linearGradient id="body" x1="0%" y1="0%" x2="0%" y2="100%">
      <stop offset="0%" stop-color="#FBBF24"/>
      <stop offset="100%" stop-color="#F59E0B"/>
    </linearGradient>
    <linearGradient id="leaf" x1="0%" y1="100%" x2="0%" y2="0%">
      <stop offset="0%" stop-color="#059669"/>
      <stop offset="100%" stop-color="#10B981"/>
    </linearGradient>
  </defs>
  <path d="M32 8c-3-6-9-6-9-6s2 4 1 7c-2-2-6-3-8-2s1 5 4 7c-4 0-7 2-7 2s4 2 8 1" fill="url(#leaf)"/>
  <path d="M32 8c3-6 9-6 9-6s-2 4-1 7c2-2 6-3 8-2s-1 5-4 7c4 0 7 2 7 2s-4 2-8 1" fill="url(#leaf)"/>
  <ellipse cx="32" cy="40" rx="16" ry="20" fill="url(#body)"/>
  <path d="M22 30c2 4 2 10 0 14M28 28c1 5 1 12 0 17M34 28c-1 5-1 12 0 17M40 30c-2 4-2 10 0 14" stroke="#D97706" stroke-width="1.2" fill="none" opacity="0.5"/>
</svg>
